<?xml version="1.0" encoding="UTF-8"?>
<!DOCTYPE svg PUBLIC "-//W3C//DTD SVG 1.1//EN" "http://www.w3.org/Graphics/SVG/1.1/DTD/svg11.dtd">
<!-- Creator: CorelDRAW -->
<svg xmlns="http://www.w3.org/2000/svg" xml:space="preserve" width="4.064mm" height="4.0823mm" version="1.1" style="shape-rendering:geometricPrecision; text-rendering:geometricPrecision; image-rendering:optimizeQuality; fill-rule:evenodd; clip-rule:evenodd"
viewBox="0 0 47.23 47.44"
 xmlns:xlink="http://www.w3.org/1999/xlink"
 xmlns:xodm="http://www.corel.com/coreldraw/odm/2003">
 <defs>
  <style type="text/css">
   <![CDATA[
    .fil0 {fill:#44475A}
   ]]>
  </style>
 </defs>
 <g id="Camada_x0020_1">
  <metadata id="CorelCorpID_0Corel-Layer"/>
  <g id="_2313505198208">
   <g>
    <path class="fil0" d="M16.96 34.93c1.15,-0.23 2.2,-0.44 3.32,-0.78 3.33,-1 3.53,-0.9 6.72,0.01l3.24 0.79c-0.02,0.51 -0.74,1.09 -1.06,1.34 -2.26,1.79 -4.41,0.12 -5.63,0.1 -1.55,-0.02 -3.15,1.77 -5.66,-0.13 -0.3,-0.22 -0.99,-0.89 -0.94,-1.34zm-5.87 -7.4c0.01,2.71 -0.11,5.44 0,8.15 0.12,3.16 0.72,5.5 2.52,7.65 0.87,1.04 2.23,2.03 3.42,2.66 1.95,1.03 4.02,1.45 6.64,1.44 2.81,-0.01 4.53,-0.5 6.61,-1.54 1.59,-0.8 3.26,-2.38 4.19,-3.94 1.12,-1.89 1.52,-3.84 1.63,-6.51 0.05,-1.11 0.12,-7.19 -0.04,-7.93 -0.12,0.15 -0.51,0.48 -0.69,0.63 -0.91,0.77 -0.89,1.98 -1.22,2.93 -0.53,1.52 -1.84,2.35 -3.3,1.05 -0.95,-0.84 -1.59,-1.93 -3,-2.54 -2.71,-1.17 -3.9,0.26 -4.28,0.24 -0.27,-0.02 -0.78,-0.65 -2.05,-0.69 -1.93,-0.07 -3.36,1.1 -4.5,2.4 -0.6,0.68 -1.7,1.59 -2.76,1.1 -0.97,-0.45 -1.26,-1.7 -1.45,-2.71 -0.23,-1.16 -0.68,-1.53 -1.32,-2.12 -0.18,-0.16 -0.21,-0.24 -0.38,-0.28z"/>
    <path class="fil0" d="M9.91 0c-0.16,0.26 -0.39,0.56 -0.58,0.84 -2.03,2.94 -2.13,6.96 0.1,9.78 0.95,1.21 0.56,0.23 0.39,2.04 -0.16,1.69 0.26,3.54 0.56,5.18l1.78 -0.18c0.22,-2.02 0.44,-2.6 1.27,-4.33 0.27,-0 1.23,0.3 1.65,0.38 0.57,0.1 1.19,0.17 1.77,0.2 1.24,0.07 2.57,-0.02 3.75,-0.29 4.92,-1.1 6.26,-3.59 8.79,-3.32 2.01,0.21 3.5,2.22 4.14,3.93 0.45,1.22 0.42,2.07 0.65,3.39 0.87,0.14 1.62,0.2 2.46,0.38 0.38,-2.43 0.93,-4.64 0.03,-7.02 -0.59,-1.56 -1.58,-2.43 -2.93,-3.1 -0.23,-0.11 -0.46,-0.2 -0.75,-0.28l-0.78 -0.21c-0.1,-0.12 -0.39,-2.97 -3.39,-4.66 -1.95,-1.1 -4.05,-1.39 -6.7,-1.03 -2.11,0.29 -5.23,1.12 -6.96,1.05 -4.29,-0.17 -5.05,-2.59 -5.26,-2.76z"/>
    <path class="fil0" d="M37.06 20.49c0.15,-1.43 -0.04,-1.56 -0.91,-1.69 -0.78,-0.11 -1.62,-0.17 -2.41,-0.22 -1.68,-0.12 -3.59,-0.11 -5.28,-0.04 -3.97,0.16 -2.83,0.72 -4.55,0.83 -0.41,0.03 -0.88,0.01 -1.29,-0.06 -0.48,-0.08 -0.6,-0.18 -0.96,-0.36 -1.45,-0.7 -8.05,-0.46 -10.02,-0.24 -1.37,0.15 -1.6,0.1 -1.63,1.06 -0.06,1.86 0.66,1.29 0.86,1.88 0.18,0.53 0.21,1.6 0.4,2.26 0.42,1.49 1.04,2.46 2.37,2.93 2.36,0.84 6.6,0.92 7.89,-1.8 0.31,-0.65 0.51,-1.21 0.7,-2.02 0.09,-0.37 0.14,-0.73 0.2,-1.12 0.08,-0.48 0.31,-0.49 0.81,-0.54 0.34,-0.03 0.94,-0 1.19,0.16 0.58,0.38 0.1,4.64 3.76,5.58 1.39,0.36 3.37,0.3 4.71,-0.1 1.48,-0.44 2.22,-1.06 2.76,-2.61 0.24,-0.69 0.37,-1.4 0.48,-2.17 0.07,-0.53 0.02,-0.65 0.41,-0.91 0.34,-0.22 0.45,-0.33 0.5,-0.84z"/>
   </g>
   <g>
    <path class="fil0" d="M38.62 21.54c0.07,0.4 0.62,0.86 0.85,1.07l3.76 3.72c0.94,0.95 0.31,0.59 -0.8,2.03 -0.41,0.52 -3.68,3.59 -3.77,3.77 -0.15,0.3 -0.06,1.44 -0.02,1.82 0.05,0.56 0.01,1.27 0.74,1.06 0.26,-0.07 0.81,-0.7 0.99,-0.88 0.65,-0.63 1.24,-1.22 1.88,-1.85 1.27,-1.27 2.49,-2.5 3.77,-3.77 0.64,-0.64 1.68,-1.39 0.98,-2.27l-5.62 -5.65c-1.32,-1.36 -2.49,-2.96 -2.74,-0.89 -0.05,0.42 -0.09,1.43 -0.01,1.84z"/>
    <path class="fil0" d="M8.57 21.54c0.03,-0.13 0.34,-3.34 -0.76,-2.73 -0.33,0.18 -5.49,5.42 -5.64,5.57 -2.7,2.73 -2.73,2.27 -0.9,4.13 1.24,1.27 2.48,2.49 3.74,3.74 0.33,0.33 2.56,2.68 2.9,2.77 0.69,0.17 0.7,-0.56 0.72,-1.11 0.02,-0.42 0.05,-1.35 -0.03,-1.75 -0.07,-0.37 -2.38,-2.53 -2.73,-2.88 -0.63,-0.64 -1.23,-1.24 -1.87,-1.86 -0.55,-0.54 -0.52,-0.55 0.01,-1.07l2.82 -2.78c0.36,-0.37 1.62,-1.46 1.74,-2.02z"/>
   </g>
  </g>
 </g>
</svg>
