<?xml version="1.0" encoding="UTF-8"?>
<!DOCTYPE svg PUBLIC "-//W3C//DTD SVG 1.1//EN" "http://www.w3.org/Graphics/SVG/1.1/DTD/svg11.dtd">
<!-- Creator: CorelDRAW -->
<svg xmlns="http://www.w3.org/2000/svg" xml:space="preserve" width="4.064mm" height="4.0823mm" version="1.1" style="shape-rendering:geometricPrecision; text-rendering:geometricPrecision; image-rendering:optimizeQuality; fill-rule:evenodd; clip-rule:evenodd"
viewBox="0 0 70.57 70.89"
 xmlns:xlink="http://www.w3.org/1999/xlink"
 xmlns:xodm="http://www.corel.com/coreldraw/odm/2003">
 <defs>
  <style type="text/css">
   <![CDATA[
    .fil0 {fill:#F8F8F2}
   ]]>
  </style>
 </defs>
 <g id="Camada_x0020_1">
  <metadata id="CorelCorpID_0Corel-Layer"/>
  <g id="_2311777509904">
   <g>
    <path class="fil0" d="M25.34 52.19c1.72,-0.34 3.29,-0.66 4.96,-1.16 4.97,-1.5 5.27,-1.35 10.04,0.02l4.84 1.19c-0.03,0.77 -1.11,1.63 -1.59,2.01 -3.37,2.68 -6.58,0.17 -8.41,0.15 -2.32,-0.03 -4.71,2.64 -8.45,-0.19 -0.44,-0.33 -1.48,-1.32 -1.4,-2.01zm-8.77 -11.06c0.02,4.05 -0.16,8.12 0,12.18 0.18,4.72 1.08,8.22 3.77,11.44 1.3,1.55 3.33,3.04 5.11,3.98 2.91,1.54 6.01,2.17 9.93,2.15 4.2,-0.02 6.76,-0.74 9.87,-2.3 2.38,-1.2 4.87,-3.56 6.26,-5.89 1.68,-2.82 2.27,-5.74 2.44,-9.73 0.07,-1.66 0.19,-10.74 -0.07,-11.85 -0.18,0.22 -0.77,0.72 -1.03,0.94 -1.35,1.15 -1.33,2.97 -1.83,4.38 -0.79,2.27 -2.76,3.51 -4.94,1.57 -1.41,-1.26 -2.38,-2.89 -4.49,-3.8 -4.05,-1.75 -5.83,0.4 -6.4,0.35 -0.4,-0.03 -1.17,-0.97 -3.07,-1.03 -2.88,-0.1 -5.02,1.64 -6.73,3.59 -0.89,1.02 -2.54,2.38 -4.12,1.65 -1.45,-0.67 -1.88,-2.55 -2.17,-4.04 -0.35,-1.74 -1.01,-2.29 -1.97,-3.17 -0.26,-0.24 -0.32,-0.36 -0.57,-0.42z"/>
    <path class="fil0" d="M14.81 0c-0.23,0.39 -0.58,0.84 -0.87,1.26 -3.03,4.39 -3.18,10.39 0.15,14.61 1.42,1.8 0.84,0.34 0.58,3.04 -0.24,2.52 0.38,5.29 0.84,7.75l2.66 -0.27c0.34,-3.02 0.66,-3.89 1.9,-6.47 0.4,-0.01 1.83,0.45 2.46,0.57 0.85,0.15 1.77,0.26 2.65,0.31 1.85,0.1 3.84,-0.04 5.6,-0.43 7.36,-1.64 9.36,-5.36 13.14,-4.96 3,0.32 5.22,3.32 6.18,5.88 0.68,1.82 0.63,3.1 0.97,5.06 1.31,0.21 2.42,0.3 3.68,0.57 0.57,-3.63 1.39,-6.93 0.04,-10.5 -0.89,-2.33 -2.37,-3.63 -4.38,-4.63 -0.34,-0.17 -0.69,-0.29 -1.12,-0.41l-1.17 -0.31c-0.14,-0.18 -0.58,-4.43 -5.07,-6.97 -2.92,-1.65 -6.05,-2.08 -10.01,-1.54 -3.16,0.43 -7.82,1.67 -10.39,1.57 -6.41,-0.25 -7.55,-3.87 -7.85,-4.12z"/>
    <path class="fil0" d="M55.37 30.62c0.22,-2.14 -0.06,-2.34 -1.36,-2.53 -1.16,-0.17 -2.43,-0.25 -3.6,-0.34 -2.51,-0.18 -5.37,-0.17 -7.89,-0.06 -5.94,0.24 -4.24,1.08 -6.79,1.25 -0.62,0.04 -1.31,0.02 -1.93,-0.09 -0.72,-0.13 -0.89,-0.27 -1.44,-0.54 -2.16,-1.05 -12.03,-0.68 -14.97,-0.35 -2.05,0.23 -2.38,0.16 -2.43,1.58 -0.09,2.78 0.99,1.92 1.29,2.81 0.26,0.78 0.31,2.39 0.59,3.37 0.63,2.22 1.55,3.67 3.54,4.38 3.53,1.26 9.86,1.38 11.79,-2.68 0.46,-0.97 0.77,-1.81 1.04,-3.01 0.13,-0.56 0.2,-1.1 0.3,-1.67 0.12,-0.71 0.46,-0.73 1.21,-0.8 0.51,-0.05 1.41,-0 1.78,0.24 0.87,0.57 0.15,6.93 5.61,8.34 2.08,0.54 5.03,0.45 7.04,-0.15 2.21,-0.66 3.31,-1.59 4.12,-3.89 0.36,-1.02 0.56,-2.09 0.72,-3.25 0.11,-0.79 0.03,-0.97 0.62,-1.36 0.51,-0.33 0.67,-0.5 0.74,-1.25z"/>
   </g>
   <g>
    <path class="fil0" d="M57.71 32.19c0.11,0.6 0.93,1.28 1.27,1.61l5.61 5.55c1.4,1.42 0.47,0.88 -1.2,3.03 -0.61,0.78 -5.5,5.37 -5.63,5.63 -0.23,0.45 -0.08,2.14 -0.03,2.72 0.08,0.84 0.02,1.9 1.1,1.59 0.39,-0.11 1.21,-1.05 1.48,-1.31 0.97,-0.94 1.86,-1.82 2.81,-2.77 1.9,-1.89 3.73,-3.73 5.63,-5.63 0.96,-0.96 2.51,-2.08 1.46,-3.39l-8.39 -8.45c-1.98,-2.03 -3.72,-4.42 -4.09,-1.33 -0.08,0.62 -0.13,2.14 -0.02,2.75z"/>
    <path class="fil0" d="M12.81 32.19c0.04,-0.2 0.5,-4.99 -1.14,-4.08 -0.49,0.27 -8.2,8.09 -8.43,8.33 -4.03,4.08 -4.08,3.39 -1.35,6.17 1.85,1.89 3.7,3.72 5.59,5.58 0.5,0.49 3.82,4.01 4.34,4.13 1.03,0.25 1.05,-0.84 1.08,-1.67 0.02,-0.63 0.08,-2.02 -0.04,-2.61 -0.11,-0.56 -3.56,-3.78 -4.08,-4.3 -0.94,-0.95 -1.84,-1.85 -2.8,-2.79 -0.82,-0.8 -0.78,-0.82 0.02,-1.59l4.22 -4.16c0.54,-0.55 2.42,-2.18 2.61,-3.02z"/>
   </g>
  </g>
 </g>
</svg>
