<svg width="480" height="320" viewBox="0 0 480 320" fill="none" xmlns="http://www.w3.org/2000/svg">
<g clip-path="url(#clip0_61_102)">
<path d="M0 0H480V320H0V0Z" fill="#50FA7B"/>
<path d="M240 18.0585L431.719 159.719L240 301.287L47.345 159.719L240 18.0585Z" fill="#F1FA8C"/>
<path d="M240 235.228C281.547 235.228 315.228 201.547 315.228 160C315.228 118.453 281.547 84.7719 240 84.7719C198.453 84.7719 164.772 118.453 164.772 160C164.772 201.547 198.453 235.228 240 235.228Z" fill="#F8F8F2"/>
<path d="M202.012 155.041C189.006 155.041 176.374 157.006 164.491 160.655C165.053 201.731 198.456 234.854 239.626 234.854C265.076 234.854 287.626 222.129 301.193 202.76C277.895 173.754 242.058 155.041 202.012 155.041V155.041ZM313.357 174.035C314.199 169.357 314.76 164.585 314.76 159.626C314.76 118.082 281.076 84.3976 239.532 84.3976C208.561 84.3976 181.988 103.205 170.386 129.871C180.585 127.813 191.064 126.69 201.825 126.69C245.614 126.784 285.099 144.936 313.357 174.035V174.035Z" fill="#8BE9FD"/>
</g>
<defs>
<clipPath id="clip0_61_102">
<rect width="480" height="320" fill="white"/>
</clipPath>
</defs>
</svg>
