<svg width="480" height="320" viewBox="0 0 480 320" fill="none" xmlns="http://www.w3.org/2000/svg">
<g clip-path="url(#clip0_61_107)">
<path d="M0 0H480V320H0V0Z" fill="#F8F8F2"/>
<path d="M0 0H480V24.6082H0V0ZM0 49.2164H480V73.8246H0V49.2164ZM0 98.4327H480V123.041H0V98.4327ZM0 147.649H480V172.257H0V147.649ZM0 196.959H480V221.567H0V196.959ZM0 246.175H480V270.784H0V246.175ZM0 295.392H480V320H0V295.392Z" fill="#FF5555"/>
<path d="M0 0H240V172.257H0V0Z" fill="#8BE9FD"/>
<path d="M45.2105 129.854L41.4678 117.877L37.3509 129.854H25L35.0117 137.058L31.269 149.035L41.4678 141.643L51.386 149.035L47.5497 137.058L57.7485 129.854H45.2105ZM97.8889 129.854L94.0526 117.877L90.1228 129.854H77.7719L87.7836 137.058L84.0409 149.035L94.0526 141.643L104.158 149.035L100.415 137.058L110.427 129.854H97.8889ZM150.754 129.854L146.731 117.877L142.988 129.854H130.357L140.649 137.058L136.719 149.035L146.731 141.643L157.023 149.035L153.094 137.058L163.105 129.854H150.754ZM203.339 129.854L199.596 117.877L195.667 129.854H183.222L193.327 137.058L189.585 149.035L199.596 141.643L209.702 149.035L205.678 137.058L215.971 129.854H203.339ZM94.0526 70.345L90.1228 82.3216H77.7719L87.7836 89.7135L84.0409 101.503L94.0526 94.2047L104.158 101.503L100.415 89.7135L110.427 82.3216H97.8889L94.0526 70.345ZM41.4678 70.345L37.3509 82.3216H25L35.0117 89.7135L31.269 101.503L41.4678 94.2047L51.386 101.503L47.5497 89.7135L57.7485 82.3216H45.2105L41.4678 70.345ZM146.731 70.345L142.988 82.3216H130.357L140.649 89.7135L136.719 101.503L146.731 94.2047L157.023 101.503L153.094 89.7135L163.105 82.3216H150.754L146.731 70.345ZM199.596 70.345L195.667 82.3216H183.222L193.327 89.7135L189.585 101.503L199.596 94.2047L209.702 101.503L205.678 89.7135L215.971 82.3216H203.339L199.596 70.345ZM41.4678 23L37.3509 34.7895H25L35.0117 42.1813L31.269 54.0643L41.4678 46.6725L51.386 54.0643L47.5497 42.1813L57.7485 34.7895H45.2105L41.4678 23ZM94.0526 23L90.1228 34.7895H77.7719L87.7836 42.1813L84.0409 54.0643L94.0526 46.6725L104.158 54.0643L100.415 42.1813L110.427 34.7895H97.8889L94.0526 23ZM146.731 23L142.988 34.7895H130.357L140.649 42.1813L136.719 54.0643L146.731 46.6725L157.023 54.0643L153.094 42.1813L163.105 34.7895H150.754L146.731 23ZM199.596 23L195.667 34.7895H183.222L193.327 42.1813L189.585 54.0643L199.596 46.6725L209.702 54.0643L205.678 42.1813L215.971 34.7895H203.339L199.596 23Z" fill="#F8F8F2"/>
</g>
<defs>
<clipPath id="clip0_61_107">
<rect width="480" height="320" fill="white"/>
</clipPath>
</defs>
</svg>
